<svg xmlns="http://www.w3.org/2000/svg" width="47.284" height="29.936" viewBox="0 0 47.284 29.936">
  <path id="Path_17" data-name="Path 17" d="M19.323,36.8c.361.082.553.139.75.167a4.359,4.359,0,0,1,3.441,2.531,10.011,10.011,0,0,1,.2,8.492c-1.106,2.629-3.335,3.879-5.988,4.463a12.628,12.628,0,0,1-2.632.271c-4.735.025-9.469.013-14.2.011-.874,0-.893-.019-.893-.907q0-13.71,0-27.42c0-.889.021-.912.891-.912,5.043,0,10.088-.047,15.13.025a7.145,7.145,0,0,1,6.073,3.016,7.8,7.8,0,0,1,.935,7.193C22.545,35.209,21.528,35.993,19.323,36.8ZM11.248,47.588c1.274,0,2.549.019,3.823,0a3.005,3.005,0,0,0,3.148-2.641,8.287,8.287,0,0,0-.061-2.683,3.091,3.091,0,0,0-3.2-2.609c-2.528-.025-5.056,0-7.584-.013-.513,0-.747.165-.743.711q.027,3.268,0,6.536c0,.543.219.72.737.712C8.658,47.575,9.953,47.589,11.248,47.588Zm-.112-12.354c1.215,0,2.429.007,3.643,0a2.185,2.185,0,0,0,2.378-1.953,9.317,9.317,0,0,0,.1-2.391A2.3,2.3,0,0,0,14.8,28.555c-2.49-.03-4.98-.007-7.47-.018-.487,0-.71.173-.706.687.016,1.77.019,3.54,0,5.309-.006.55.233.715.745.707C8.626,35.22,9.882,35.233,11.137,35.234Zm28.455,8.357q-3.4,0-6.792,0c-.809,0-.9.142-.8.962.412,3.293,3.129,4.492,5.905,4.228a8.188,8.188,0,0,0,1.8-.388A2.988,2.988,0,0,0,41.848,46.2a.7.7,0,0,1,.8-.59c1.235.009,2.47.014,3.7,0,.564-.007.683.242.635.771a6.847,6.847,0,0,1-5.147,6.256,14.805,14.805,0,0,1-9.812-.12,8.8,8.8,0,0,1-5.57-5.8,12.716,12.716,0,0,1,1.7-11.752,9.556,9.556,0,0,1,7-3.925,13.67,13.67,0,0,1,4.723.185,8.615,8.615,0,0,1,6.744,6.342,15.733,15.733,0,0,1,.648,5.183c-.024.734-.132.84-.888.841Q42.988,43.594,39.592,43.591Zm-2.86-3.8h4.254c.363,0,.684-.068.631-.538a4.2,4.2,0,0,0-2.812-3.84c-3.065-.833-5.717.361-6.723,3.593-.2.633-.092.778.581.783C34.019,39.8,35.376,39.788,36.732,39.787Zm0-11.136q-2.56,0-5.119,0c-.823,0-.857-.039-.861-.882,0-.576,0-1.151,0-1.727.006-.762.053-.813.8-.815q3.639-.006,7.278,0c1.007,0,2.015,0,3.022,0,.828,0,.852.03.856.881,0,.576,0,1.151,0,1.727-.006.768-.047.814-.8.816C40.186,28.654,38.459,28.651,36.732,28.651Z" transform="translate(0 -23.479)" fill="#fff" fill-rule="evenodd"/>
</svg>
