<svg xmlns="http://www.w3.org/2000/svg" width="35.931" height="35.93" viewBox="0 0 35.931 35.93">
  <path id="Path_18" data-name="Path 18" d="M30.942,5.671h0A17.467,17.467,0,0,0,18.965,1a19.427,19.427,0,0,0-5.869.958,1.7,1.7,0,0,0-.719.24A18.212,18.212,0,0,0,1,18.965,17.763,17.763,0,0,0,6.03,31.421l.12.12a17.714,17.714,0,0,0,12.815,5.39A17.941,17.941,0,0,0,36.931,18.965,17.574,17.574,0,0,0,30.942,5.671ZM18.965,4.593a14,14,0,0,1,8.5,2.874A12.561,12.561,0,0,1,21,12.258,44.207,44.207,0,0,0,16.45,4.833a17.869,17.869,0,0,1,2.515-.24ZM12.857,6.03a45.043,45.043,0,0,1,4.671,7.426,44.4,44.4,0,0,1-11.977.719A14.053,14.053,0,0,1,12.857,6.03ZM4.593,18.965a5.831,5.831,0,0,1,.12-1.437,32.12,32.12,0,0,0,4.671.24,36.433,36.433,0,0,0,9.582-1.078c.24.479.359.958.6,1.437a26.532,26.532,0,0,0-12.336,9.1A14.744,14.744,0,0,1,4.593,18.965ZM18.965,33.337a14.306,14.306,0,0,1-9.1-3.234,22.394,22.394,0,0,1,10.9-8.384,56.257,56.257,0,0,1,2.156,11.019,13.676,13.676,0,0,1-3.952.6Zm3.593-17.726c4.072-1.677,6.468-3.833,7.665-5.629a14.754,14.754,0,0,1,3.114,7.426,25.952,25.952,0,0,0-10.061-.12A7.079,7.079,0,0,1,22.559,15.612Zm3.952,15.57a61.711,61.711,0,0,0-2.156-10.42,24.461,24.461,0,0,1,8.743.359A14.352,14.352,0,0,1,26.511,31.182Z" transform="translate(-1 -1)" fill="#fff"/>
</svg>
