<svg xmlns="http://www.w3.org/2000/svg" width="37.595" height="35.931" viewBox="0 0 37.595 35.931">
  <path id="Path_16" data-name="Path 16" d="M8.543,11.673V35.926H.467V11.673Zm.513-7.487c0,.043,0,.094,0,.147A3.86,3.86,0,0,1,7.823,7.169h0a4.591,4.591,0,0,1-3.106,1.2c-.073,0-.148,0-.222,0H4.453c-.061,0-.133,0-.205,0a4.408,4.408,0,0,1-3.031-1.2h0A4,4,0,0,1,0,4.289c0-.036,0-.072,0-.109v.006c0-.031,0-.067,0-.1A3.932,3.932,0,0,1,1.256,1.2h0A4.589,4.589,0,0,1,4.354,0c.069,0,.136,0,.205,0H4.55c.064,0,.138,0,.214,0A4.465,4.465,0,0,1,7.809,1.192l0,0a4.072,4.072,0,0,1,1.25,2.94v.06ZM37.589,22.029v13.9h-8.05V22.955c.007-.118.01-.256.01-.394A7.038,7.038,0,0,0,28.529,18.9l.018.031a3.481,3.481,0,0,0-2.838-1.465c-.09,0-.18,0-.269.01h.012c-.04,0-.087,0-.133,0a3.943,3.943,0,0,0-2.456.853l.009-.006a5.23,5.23,0,0,0-1.545,2.058l-.012.034a5.78,5.78,0,0,0-.272,1.777q0,.108,0,.216V35.929H13q.049-9.764.049-15.834t-.024-7.243L13,11.676h8.05V15.2H21a10.61,10.61,0,0,1,1.015-1.383L22,13.83a10.427,10.427,0,0,1,1.359-1.254l.024-.018A6.305,6.305,0,0,1,25.468,11.5l.045-.01a9.5,9.5,0,0,1,2.69-.38h.112c.106,0,.231-.007.355-.007a8.67,8.67,0,0,1,6.371,2.778l0,.006q2.548,2.778,2.548,8.137Z" transform="translate(0.003 0.002)" fill="#fff"/>
</svg>
